# xmcd
#
# Track frame offsets:
# 150
# 18355
# 41375
# 63560
# 85435
# 107570
# 126790
# 145465
# 164680
# 182045
# 200905
# 216165
# 244865
# 261405
# 281990
# 304225
#
# Disc length: 4341 seconds
#
#
# Revision: 2
# Processed by: cddbd v1.4PL0 Copyright (c) Steve Scherf et al.
# Submitted via: FreeRIP 2.40 
#
DISCID=0010f310
DTITLE=Foreigner - The Best Ballads
DYEAR=1900
DGENRE=Rock and Roll
TTITLE0=Starrider
TTITLE1=I Want To Know What Love Is
TTITLE2=Blinded By Science
TTITLE3=Waiting For A Gyrl Like You
TTITLE4=All I Need To Know
TTITLE5=With Heaven On Our Side
TTITLE6=I Have Waided So Long
TTITLE7=Say You Will
TTITLE8=Girl On The Moon
TTITLE9=Down On Love
TTITLE10=You're All I Am
TTITLE11=Real World
TTITLE12=Head Games
TTITLE13=Safe In My Heart
TTITLE14=I Don't Want To Live Without You
TTITLE15=Spellbinder
EXTD=
EXTT0=
EXTT1=
EXTT2=
EXTT3=
EXTT4=
EXTT5=
EXTT6=
EXTT7=
EXTT8=
EXTT9=
EXTT10=
EXTT11=
EXTT12=
EXTT13=
EXTT14=
EXTT15=
PLAYORDER=
